<svg width="40" height="40" viewBox="0 0 40 40" fill="none" xmlns="http://www.w3.org/2000/svg">
<path d="M18.3283 9.99667C20.4542 9.99678 22.5274 10.659 24.2597 11.8914C25.9921 13.1237 27.2976 14.865 27.995 16.8733L28.12 17.2617L28.1933 17.5017H32.0766C33.2436 17.5016 34.3666 17.9469 35.2165 18.7466C36.0664 19.5463 36.5791 20.6402 36.65 21.805L36.6583 22.0833V23.75C36.6578 24.4817 36.3824 25.1865 35.8866 25.7246C35.3908 26.2627 34.7108 26.5948 33.9816 26.655L33.7433 26.6633H31.0333L31.435 27.6367C31.7126 28.3111 31.7275 29.0652 31.4767 29.7501C31.2259 30.435 30.7275 31.0011 30.08 31.3367L29.8516 31.4433C29.5877 31.5523 29.3091 31.622 29.025 31.65L28.74 31.6633H25.7616C25.2525 31.6631 24.7523 31.5296 24.3108 31.2761C23.8693 31.0226 23.5018 30.6579 23.245 30.2183L23.125 29.99L22.2266 28.085L22.3166 28.0733C19.9833 28.3833 17.6216 28.42 15.2816 28.1833L14.4533 28.0883L13.5616 29.9817C13.326 30.4824 12.9529 30.9058 12.4857 31.2024C12.0186 31.4989 11.4767 31.6565 10.9233 31.6567H7.91662C7.43764 31.6569 6.96599 31.5391 6.54338 31.3136C6.12077 31.0882 5.76023 30.7621 5.49362 30.3642C5.22702 29.9662 5.06259 29.5088 5.01485 29.0322C4.96712 28.5556 5.03756 28.0746 5.21995 27.6317L5.94162 25.8817C5.14275 25.4008 4.48192 24.7214 4.0234 23.9094C3.56487 23.0975 3.32426 22.1808 3.32495 21.2483C3.32537 20.9466 3.43494 20.6551 3.63345 20.4278C3.83195 20.2005 4.10598 20.0527 4.40495 20.0117L4.57495 20H7.70829L8.53662 17.2617C9.17276 15.1601 10.4683 13.3191 12.2316 12.0107C13.995 10.7024 16.1326 9.99624 18.3283 9.99667ZM29.6233 26.1517C28.3383 26.6683 27.025 27.0933 25.6966 27.4267L24.7816 27.6417L25.385 28.925C25.4253 29.0115 25.4942 29.0815 25.58 29.1233L25.6683 29.1533L25.7616 29.165H28.74C28.7989 29.165 28.8571 29.1524 28.9108 29.1282C28.9645 29.104 29.0125 29.0687 29.0515 29.0246C29.0906 28.9805 29.1199 28.9286 29.1374 28.8724C29.1549 28.8161 29.1604 28.7568 29.1533 28.6983L29.125 28.59L28.3283 26.6633H28.2566L28.9416 26.4167L29.6233 26.1517ZM7.03662 26.1517L7.68662 26.405L8.33329 26.64L7.52995 28.5833C7.50391 28.6467 7.49391 28.7156 7.50082 28.7837C7.50774 28.8519 7.53136 28.9173 7.5696 28.9742C7.60784 29.0311 7.65952 29.0776 7.72005 29.1097C7.78058 29.1418 7.84809 29.1585 7.91662 29.1583H10.9233L11.0183 29.1467C11.0797 29.1325 11.1371 29.1046 11.1862 29.0651C11.2353 29.0255 11.2747 28.9754 11.3016 28.9183L11.9 27.6467L11.9733 27.6633C10.2877 27.3015 8.63619 26.7963 7.03662 26.1533M6.69995 23.33L6.95162 22.4967L6.10662 22.5L6.14829 22.5867C6.29162 22.8633 6.47995 23.1133 6.69995 23.33ZM28.95 20L30.21 24.1633L33.7433 24.165C33.8369 24.1649 33.9278 24.1333 34.0013 24.0753C34.0748 24.0172 34.1266 23.9361 34.1483 23.845L34.16 23.7483V22.0833C34.1598 21.5679 33.9685 21.0708 33.6231 20.6881C33.2777 20.3055 32.8027 20.0645 32.29 20.0117L32.0766 20.0017L28.95 20Z" fill="#0B8800"/>
</svg>
