<svg width="32" height="32" viewBox="0 0 32 32" fill="none" xmlns="http://www.w3.org/2000/svg">
<g clip-path="url(#clip0_30_127)">
<mask id="mask0_30_127" style="mask-type:luminance" maskUnits="userSpaceOnUse" x="0" y="0" width="32" height="32">
<path d="M0 0H32V32H0V0Z" fill="white"/>
</mask>
<g mask="url(#mask0_30_127)">
<path fill-rule="evenodd" clip-rule="evenodd" d="M4 10H8L12.964 5.036C13.4585 4.54161 14.0885 4.20495 14.7743 4.06856C15.4602 3.93218 16.171 4.00221 16.8171 4.26978C17.4631 4.53736 18.0153 4.99048 18.4039 5.57185C18.7924 6.15322 18.9999 6.83674 19 7.536V24.464C18.9999 25.1633 18.7924 25.8468 18.4039 26.4282C18.0153 27.0095 17.4631 27.4626 16.8171 27.7302C16.171 27.9978 15.4602 28.0678 14.7743 27.9314C14.0885 27.795 13.4585 27.4584 12.964 26.964L8 22H4C2.93913 22 1.92172 21.5786 1.17157 20.8284C0.421427 20.0783 0 19.0609 0 18V14C0 12.9391 0.421427 11.9217 1.17157 11.1716C1.92172 10.4214 2.93913 10 4 10ZM28.324 26.206C27.794 26.844 26.838 26.838 26.252 26.254C25.668 25.668 25.676 24.722 26.19 24.074C28.0139 21.7785 29.0046 18.9319 29 16C29.0046 13.0681 28.0139 10.2215 26.19 7.926C25.676 7.278 25.668 6.332 26.252 5.746C26.838 5.162 27.794 5.158 28.324 5.794C30.7053 8.66135 32.0061 12.2728 32 16C32 19.88 30.62 23.436 28.324 26.206ZM24.048 21.936C23.556 22.602 22.596 22.596 22.01 22.01C21.424 21.424 21.442 20.482 21.89 19.784C22.6166 18.6559 23.0021 17.3419 23 16C23 14.606 22.592 13.306 21.89 12.216C21.442 11.52 21.424 10.576 22.01 9.99C22.596 9.404 23.556 9.398 24.05 10.064C25.274 11.724 26 13.78 26 16C26.0034 18.1369 25.319 20.2182 24.048 21.936Z" fill="#0B8800"/>
</g>
</g>
<defs>
<clipPath id="clip0_30_127">
<rect width="32" height="32" fill="white"/>
</clipPath>
</defs>
</svg>
