<svg width="24" height="24" viewBox="0 0 24 24" fill="none" xmlns="http://www.w3.org/2000/svg">
<path d="M22 13C22.5523 13 23 12.5523 23 12C23 11.4477 22.5523 11 22 11V13ZM22 11L2 11V13L22 13V11Z" fill="black"/>
<rect x="2" y="12" width="1" height="1" transform="rotate(135 2 12)" fill="black"/>
<path d="M9.29289 20.7071C9.68342 21.0976 10.3166 21.0976 10.7071 20.7071C11.0976 20.3166 11.0976 19.6834 10.7071 19.2929L9.29289 20.7071ZM10.7071 19.2929L2.22183 10.8076L0.807612 12.2218L9.29289 20.7071L10.7071 19.2929Z" fill="black"/>
<path d="M10.7071 4.70711C11.0976 4.31658 11.0976 3.68342 10.7071 3.29289C10.3166 2.90237 9.68342 2.90237 9.29289 3.29289L10.7071 4.70711ZM9.29289 3.29289L0.807612 11.7782L2.22183 13.1924L10.7071 4.70711L9.29289 3.29289Z" fill="black"/>
</svg>
