<svg width="24" height="24" viewBox="0 0 24 24" fill="none" xmlns="http://www.w3.org/2000/svg">
<path d="M2 11C1.44772 11 1 11.4477 1 12C1 12.5523 1.44772 13 2 13V11ZM2 13H22V11H2V13Z" fill="white"/>
<rect x="22" y="12" width="1" height="1" transform="rotate(-45 22 12)" fill="white"/>
<path d="M14.7071 3.29289C14.3166 2.90237 13.6834 2.90237 13.2929 3.29289C12.9024 3.68342 12.9024 4.31658 13.2929 4.70711L14.7071 3.29289ZM13.2929 4.70711L21.7782 13.1924L23.1924 11.7782L14.7071 3.29289L13.2929 4.70711Z" fill="white"/>
<path d="M13.2929 19.2929C12.9024 19.6834 12.9024 20.3166 13.2929 20.7071C13.6834 21.0976 14.3166 21.0976 14.7071 20.7071L13.2929 19.2929ZM14.7071 20.7071L23.1924 12.2218L21.7782 10.8076L13.2929 19.2929L14.7071 20.7071Z" fill="white"/>
</svg>
